<svg xmlns="http://www.w3.org/2000/svg" viewBox="0 0 980 280" role="img" aria-labelledby="title desc">
  <title id="title">Aegis logo</title>
  <desc id="desc">A shield mark with a market signal line and Aegis wordmark.</desc>
  <defs>
    <linearGradient id="shieldGradient" x1="80" y1="20" x2="230" y2="250" gradientUnits="userSpaceOnUse">
      <stop offset="0" stop-color="#2dd4bf"/>
      <stop offset="0.52" stop-color="#60a5fa"/>
      <stop offset="1" stop-color="#a78bfa"/>
    </linearGradient>
    <linearGradient id="edgeGradient" x1="62" y1="22" x2="248" y2="260" gradientUnits="userSpaceOnUse">
      <stop offset="0" stop-color="#9ff7ec"/>
      <stop offset="1" stop-color="#7c3aed"/>
    </linearGradient>
    <filter id="softShadow" x="-20%" y="-20%" width="140%" height="150%">
      <feDropShadow dx="0" dy="16" stdDeviation="14" flood-color="#020617" flood-opacity="0.32"/>
    </filter>
  </defs>

  <rect width="980" height="280" fill="none"/>

  <g filter="url(#softShadow)">
    <path d="M155 20L248 56V129C248 188 211 231 155 260C99 231 62 188 62 129V56L155 20Z" fill="#111827"/>
    <path d="M155 31L237 63V128C237 180 204 218 155 246C106 218 73 180 73 128V63L155 31Z" fill="url(#shieldGradient)"/>
    <path d="M155 44L224 70V126C224 170 198 203 155 228C112 203 86 170 86 126V70L155 44Z" fill="#101214" opacity="0.9"/>
    <path d="M96 146H122L139 108L160 178L181 86L199 146H215" fill="none" stroke="#2dd4bf" stroke-width="13" stroke-linecap="round" stroke-linejoin="round"/>
    <path d="M155 31L237 63V128C237 180 204 218 155 246C106 218 73 180 73 128V63L155 31Z" fill="none" stroke="url(#edgeGradient)" stroke-width="5"/>
  </g>

  <g>
    <text x="306" y="152" fill="#f8fafc" font-family="Aptos, Inter, Segoe UI, Arial, sans-serif" font-size="92" font-weight="800" letter-spacing="0">Aegis</text>
    <text x="312" y="196" fill="#93a1b1" font-family="Aptos, Inter, Segoe UI, Arial, sans-serif" font-size="24" font-weight="650" letter-spacing="2.8">TRADING BOT</text>
    <path d="M309 216H576" stroke="#2dd4bf" stroke-width="5" stroke-linecap="round"/>
  </g>
</svg>
